<?xml version="1.0" standalone="no"?><svg xmlns="http://www.w3.org/2000/svg" viewBox="0 0 1440 320"><path fill="#273036" fill-opacity="1" d="M0,32L16,53.3C32,75,64,117,96,117.3C128,117,160,75,192,90.7C224,107,256,181,288,213.3C320,245,352,235,384,197.3C416,160,448,96,480,80C512,64,544,96,576,138.7C608,181,640,235,672,224C704,213,736,139,768,90.7C800,43,832,21,864,42.7C896,64,928,128,960,133.3C992,139,1024,85,1056,53.3C1088,21,1120,11,1152,26.7C1184,43,1216,85,1248,90.7C1280,96,1312,64,1344,64C1376,64,1408,96,1424,112L1440,128L1440,0L1424,0C1408,0,1376,0,1344,0C1312,0,1280,0,1248,0C1216,0,1184,0,1152,0C1120,0,1088,0,1056,0C1024,0,992,0,960,0C928,0,896,0,864,0C832,0,800,0,768,0C736,0,704,0,672,0C640,0,608,0,576,0C544,0,512,0,480,0C448,0,416,0,384,0C352,0,320,0,288,0C256,0,224,0,192,0C160,0,128,0,96,0C64,0,32,0,16,0L0,0Z"></path></svg>