<?xml version="1.0" standalone="no"?><svg xmlns="http://www.w3.org/2000/svg" viewBox="0 0 1440 320"><path fill="#000b76" fill-opacity="1" d="M0,160L16,176C32,192,64,224,96,240C128,256,160,256,192,224C224,192,256,128,288,117.3C320,107,352,149,384,181.3C416,213,448,235,480,234.7C512,235,544,213,576,176C608,139,640,85,672,101.3C704,117,736,203,768,202.7C800,203,832,117,864,112C896,107,928,181,960,208C992,235,1024,213,1056,208C1088,203,1120,213,1152,192C1184,171,1216,117,1248,106.7C1280,96,1312,128,1344,170.7C1376,213,1408,267,1424,293.3L1440,320L1440,0L1424,0C1408,0,1376,0,1344,0C1312,0,1280,0,1248,0C1216,0,1184,0,1152,0C1120,0,1088,0,1056,0C1024,0,992,0,960,0C928,0,896,0,864,0C832,0,800,0,768,0C736,0,704,0,672,0C640,0,608,0,576,0C544,0,512,0,480,0C448,0,416,0,384,0C352,0,320,0,288,0C256,0,224,0,192,0C160,0,128,0,96,0C64,0,32,0,16,0L0,0Z"></path></svg>