<?xml version="1.0" standalone="no"?><svg xmlns="http://www.w3.org/2000/svg" viewBox="0 0 1440 320"><path fill="#f3f4f5" fill-opacity="1" d="M0,96L18.5,122.7C36.9,149,74,203,111,234.7C147.7,267,185,277,222,245.3C258.5,213,295,139,332,101.3C369.2,64,406,64,443,90.7C480,117,517,171,554,170.7C590.8,171,628,117,665,106.7C701.5,96,738,128,775,138.7C812.3,149,849,139,886,128C923.1,117,960,107,997,117.3C1033.8,128,1071,160,1108,154.7C1144.6,149,1182,107,1218,112C1255.4,117,1292,171,1329,165.3C1366.2,160,1403,96,1422,64L1440,32L1440,0L1421.5,0C1403.1,0,1366,0,1329,0C1292.3,0,1255,0,1218,0C1181.5,0,1145,0,1108,0C1070.8,0,1034,0,997,0C960,0,923,0,886,0C849.2,0,812,0,775,0C738.5,0,702,0,665,0C627.7,0,591,0,554,0C516.9,0,480,0,443,0C406.2,0,369,0,332,0C295.4,0,258,0,222,0C184.6,0,148,0,111,0C73.8,0,37,0,18,0L0,0Z"></path></svg>