<?xml version="1.0" standalone="no"?><svg xmlns="http://www.w3.org/2000/svg" viewBox="0 0 1440 320"><path fill="#f3f4f5" fill-opacity="1" d="M0,32L21.8,48C43.6,64,87,96,131,122.7C174.5,149,218,171,262,202.7C305.5,235,349,277,393,277.3C436.4,277,480,235,524,192C567.3,149,611,107,655,112C698.2,117,742,171,785,186.7C829.1,203,873,181,916,170.7C960,160,1004,160,1047,133.3C1090.9,107,1135,53,1178,37.3C1221.8,21,1265,43,1309,64C1352.7,85,1396,107,1418,117.3L1440,128L1440,0L1418.2,0C1396.4,0,1353,0,1309,0C1265.5,0,1222,0,1178,0C1134.5,0,1091,0,1047,0C1003.6,0,960,0,916,0C872.7,0,829,0,785,0C741.8,0,698,0,655,0C610.9,0,567,0,524,0C480,0,436,0,393,0C349.1,0,305,0,262,0C218.2,0,175,0,131,0C87.3,0,44,0,22,0L0,0Z"></path></svg>